<?xml version="1.0" encoding="UTF-8" standalone="no"?>
<!-- Created with Inkscape (http://www.inkscape.org/) -->

<svg
   xmlns:dc="http://purl.org/dc/elements/1.1/"
   xmlns:cc="http://creativecommons.org/ns#"
   xmlns:rdf="http://www.w3.org/1999/02/22-rdf-syntax-ns#"
   xmlns:svg="http://www.w3.org/2000/svg"
   xmlns="http://www.w3.org/2000/svg"
   xmlns:sodipodi="http://sodipodi.sourceforge.net/DTD/sodipodi-0.dtd"
   xmlns:inkscape="http://www.inkscape.org/namespaces/inkscape"
   width="256"
   height="256"
   id="svg2"
   version="1.1"
   inkscape:version="0.48.4 r9939"
   sodipodi:docname="Karaffe_Logo_with_Name.svg">
  <defs
     id="defs4" />
  <sodipodi:namedview
     id="base"
     pagecolor="#ffffff"
     bordercolor="#666666"
     borderopacity="1.0"
     inkscape:pageopacity="0.0"
     inkscape:pageshadow="2"
     inkscape:zoom="4"
     inkscape:cx="87.827391"
     inkscape:cy="160.5822"
     inkscape:document-units="px"
     inkscape:current-layer="layer1"
     showgrid="false"
     inkscape:window-width="1920"
     inkscape:window-height="1034"
     inkscape:window-x="0"
     inkscape:window-y="24"
     inkscape:window-maximized="1" />
  <metadata
     id="metadata7">
    <rdf:RDF>
      <cc:Work
         rdf:about="">
        <dc:format>image/svg+xml</dc:format>
        <dc:type
           rdf:resource="http://purl.org/dc/dcmitype/StillImage" />
        <dc:title />
      </cc:Work>
    </rdf:RDF>
  </metadata>
  <g
     inkscape:label="レイヤー 1"
     inkscape:groupmode="layer"
     id="layer1"
     transform="translate(0,-796.36218)">
    <path
       style="fill:#4c352a;fill-opacity:1;fill-rule:nonzero;stroke:none"
       d="m 190.77427,34.958424 c -16.1626,0.110785 -32.22513,2.527046 -48.05564,5.616405 -16.82992,3.359008 -33.44334,7.809285 -49.788114,13.000782 -1.269472,0.714925 -0.201094,2.286803 0.948109,2.321245 26.087725,7.731345 52.686805,14.13167 79.808555,16.905808 16.87531,1.654142 34.14813,2.015655 50.75896,-1.836428 7.02056,-1.815665 14.51365,-4.325292 19.24513,-10.159895 1.58185,-1.820832 2.31468,-4.174805 2.02831,-6.57448 -0.007,-3.657167 -2.8453,-6.563101 -5.47514,-8.767193 -7.66025,-5.773317 -17.32529,-7.909057 -26.62642,-9.365619 -7.55735,-1.183738 -15.21298,-1.192262 -22.84375,-1.140625 z"
       id="path3001"
       inkscape:connector-curvature="0"
       transform="translate(0,796.36218)" />
    <path
       style="fill:#7b5544;fill-opacity:1;fill-rule:nonzero;stroke:none"
       d="m 24.917813,838.51033 c -4.62164,-0.12915 -9.807328,1.11522 -12.710938,4.98438 -2.5022541,3.74177 -2.4981193,8.6855 -1.3125,12.89062 1.583454,5.01362 7.16361,7.32114 12.0625,7.35156 7.66674,0.35919 15.30026,-0.73718 22.727787,-2.56483 11.423578,-2.86175 22.787075,-6.00673 34.100338,-9.26329 1.186625,-0.68827 0.255885,-2.21061 -0.898438,-2.11719 -14.08291,-3.43277 -27.987802,-7.87326 -42.278242,-10.47616 -3.858971,-0.66225 -7.777322,-0.87042 -11.690507,-0.80509 z"
       id="path3792"
       inkscape:connector-curvature="0" />
    <path
       style="fill:#855d49;fill-opacity:1;fill-rule:nonzero;stroke:none"
       d="m 83.245937,852.48689 c -16.04914,3.80997 -31.695957,9.32289 -47.965632,11.96124 -4.918818,0.72109 -9.99467,0.62152 -14.969207,0.31489 -3.0708,-0.524 -5.945031,-1.93262 -8.365639,-3.82147 -1.789007,-0.44316 -1.450952,2.05295 -1.457334,3.2094 0.973352,20.07302 6.269707,40.55603 18.612957,56.74535 10.770068,14.31936 26.56043,24.14909 43.361408,29.84374 18.499885,6.32274 38.16035,8.47854 57.63501,8.77029 11.45346,-0.0718 22.983,-0.058 34.28906,-2.10938 18.45931,-3.01284 36.61584,-10.22941 50.5625,-22.9375 13.47754,-12.00906 22.27434,-28.57772 26.57887,-45.96049 2.49597,-9.80097 3.72714,-19.88838 4.24144,-29.977 -0.36056,-1.88885 -2.25107,-0.57384 -2.95312,0.36718 -5.76993,4.59269 -13.10201,6.62945 -20.19247,8.22766 -14.81548,3.0284 -30.09284,2.89484 -45.14347,1.98328 -30.5264,-2.13576 -60.54963,-8.8286 -89.843748,-17.46875 -1.477635,0.0323 -2.930267,0.61055 -4.390625,0.85156 z"
       id="path3794"
       inkscape:connector-curvature="0" />
    <path
       style="fill:none;stroke:#36251e;stroke-width:3;stroke-linecap:round;stroke-linejoin:round;stroke-miterlimit:4;stroke-opacity:1;stroke-dasharray:none"
       d="M 87.433351,850.97626 C 61.111052,846.78683 9.8219752,823.4026 9.4353785,850.97713 8.8583453,879.22397 62.135511,855.50356 87.433351,850.97626 z"
       id="path3004"
       inkscape:connector-curvature="0"
       sodipodi:nodetypes="ccc" />
    <path
       style="fill:none;stroke:#36251e;stroke-width:3;stroke-linecap:butt;stroke-linejoin:miter;stroke-miterlimit:4;stroke-opacity:1;stroke-dasharray:none"
       d="m 87.469663,850.97713 c 113.195307,-36.71968 159.056807,-15.84162 159.099027,0.25254 0.0752,16.43488 -46.31051,34.7608 -159.099027,-0.25254 z"
       id="path3006"
       inkscape:connector-curvature="0"
       sodipodi:nodetypes="ccc" />
    <path
       style="fill:none;stroke:#36251e;stroke-width:3;stroke-linecap:butt;stroke-linejoin:miter;stroke-miterlimit:4;stroke-opacity:1;stroke-dasharray:none"
       d="M 246.5687,851.21073 C 245.87402,958.95651 159.98006,960.30196 133.99982,960.19987 18.465014,960.25027 9.4270845,892.14695 9.4335304,851.29884"
       id="path3008"
       inkscape:connector-curvature="0"
       sodipodi:nodetypes="ccc" />
    <text
       xml:space="preserve"
       style="font-size:40px;font-style:normal;font-weight:normal;line-height:125%;letter-spacing:0px;word-spacing:0px;fill:#000000;fill-opacity:1;stroke:none;font-family:Sans"
       x="32.255859"
       y="1017.7075"
       id="text3796"
       sodipodi:linespacing="125%"><tspan
         sodipodi:role="line"
         id="tspan3798"
         x="32.255859"
         y="1017.7075"
         style="font-size:56px;font-style:normal;font-variant:normal;font-weight:normal;font-stretch:normal;fill:#36251e;fill-opacity:1;font-family:Open Sans;-inkscape-font-specification:Open Sans">Karaffe</tspan></text>
  </g>
</svg>
